<svg width="900" height="520" viewBox="0 0 900 520" fill="none" xmlns="http://www.w3.org/2000/svg">
  <rect width="900" height="520" rx="30" fill="#E9FBF6"/>
  <circle cx="160" cy="110" r="80" fill="#8FE3CF"/>
  <circle cx="770" cy="420" r="100" fill="#A9C7FF"/>
  <rect x="130" y="140" width="290" height="240" rx="24" fill="#FFFFFF"/>
  <rect x="170" y="190" width="180" height="16" rx="8" fill="#10454F"/>
  <rect x="170" y="220" width="210" height="12" rx="6" fill="#5B7D87"/>
  <rect x="170" y="244" width="170" height="12" rx="6" fill="#5B7D87"/>
  <rect x="170" y="268" width="140" height="12" rx="6" fill="#5B7D87"/>
  <rect x="450" y="95" width="320" height="160" rx="24" fill="#15324D"/>
  <rect x="478" y="130" width="84" height="84" rx="14" fill="#FFC857"/>
  <path d="M520 154L532 168L552 143" stroke="#15324D" stroke-width="10" stroke-linecap="round" stroke-linejoin="round"/>
  <rect x="584" y="132" width="160" height="14" rx="7" fill="#D8F0FF"/>
  <rect x="584" y="158" width="128" height="12" rx="6" fill="#8CBED6"/>
  <rect x="584" y="182" width="148" height="12" rx="6" fill="#8CBED6"/>
  <rect x="400" y="292" width="370" height="150" rx="24" fill="#FFFFFF"/>
  <rect x="430" y="332" width="95" height="72" rx="14" fill="#FF9770"/>
  <rect x="542" y="316" width="200" height="16" rx="8" fill="#10454F"/>
  <rect x="542" y="345" width="170" height="12" rx="6" fill="#5B7D87"/>
  <rect x="542" y="369" width="150" height="12" rx="6" fill="#5B7D87"/>
</svg>
