<svg width="420" height="260" viewBox="0 0 420 260" fill="none" xmlns="http://www.w3.org/2000/svg">
  <rect width="420" height="260" rx="22" fill="#F8FAFC"/>
  <rect x="24" y="22" width="372" height="216" rx="14" fill="#FFFFFF" stroke="#CBD5E1"/>
  <text x="42" y="52" fill="#0F172A" font-size="16" font-family="Arial">Assembly Guide</text>
  <rect x="44" y="74" width="90" height="70" rx="8" fill="#E2E8F0"/>
  <rect x="160" y="74" width="90" height="70" rx="8" fill="#E2E8F0"/>
  <rect x="276" y="74" width="90" height="70" rx="8" fill="#E2E8F0"/>
  <path d="M89 109H140" stroke="#0EA5E9" stroke-width="4" stroke-linecap="round"/>
  <path d="M205 109H256" stroke="#0EA5E9" stroke-width="4" stroke-linecap="round"/>
  <path d="M132 104L142 109L132 114" stroke="#0EA5E9" stroke-width="4" stroke-linecap="round" stroke-linejoin="round"/>
  <path d="M248 104L258 109L248 114" stroke="#0EA5E9" stroke-width="4" stroke-linecap="round" stroke-linejoin="round"/>
  <rect x="44" y="164" width="322" height="54" rx="10" fill="#F1F5F9"/>
  <circle cx="74" cy="191" r="12" fill="#F59E0B"/>
  <circle cx="114" cy="191" r="12" fill="#0EA5E9"/>
  <circle cx="154" cy="191" r="12" fill="#22C55E"/>
  <rect x="188" y="181" width="160" height="18" rx="9" fill="#94A3B8"/>
</svg>
