<svg width="420" height="260" viewBox="0 0 420 260" fill="none" xmlns="http://www.w3.org/2000/svg">
  <rect width="420" height="260" rx="22" fill="#111827"/>
  <rect x="24" y="22" width="190" height="216" rx="18" fill="#1F2937"/>
  <rect x="40" y="42" width="160" height="12" rx="6" fill="#34D399"/>
  <rect x="40" y="66" width="130" height="10" rx="5" fill="#93C5FD"/>
  <circle cx="86" cy="134" r="34" fill="#F472B6"/>
  <path d="M75 120L104 134L75 149V120Z" fill="white"/>
  <rect x="40" y="184" width="130" height="9" rx="4.5" fill="#6B7280"/>
  <rect x="40" y="201" width="102" height="9" rx="4.5" fill="#6B7280"/>
  <rect x="240" y="34" width="156" height="34" rx="12" fill="#0EA5E9"/>
  <text x="256" y="56" fill="white" font-size="14" font-family="Arial">How to edit photo</text>
  <rect x="240" y="86" width="156" height="34" rx="12" fill="#22C55E"/>
  <text x="261" y="108" fill="white" font-size="14" font-family="Arial">Fix in 3 steps</text>
  <rect x="240" y="138" width="156" height="34" rx="12" fill="#F59E0B"/>
  <text x="267" y="160" fill="white" font-size="14" font-family="Arial">Use this feature</text>
  <rect x="240" y="190" width="156" height="34" rx="12" fill="#A78BFA"/>
  <text x="258" y="212" fill="white" font-size="14" font-family="Arial">Clear instructions</text>
</svg>
